<svg width="250" height="250" viewBox="0 0 250 250" fill="none" xmlns="http://www.w3.org/2000/svg">
<path d="M95.429 153.948C101.461 159.981 111.242 159.981 117.274 153.948C123.306 147.918 123.306 138.135 117.274 132.105L70.498 85.3284C64.466 79.2964 54.685 79.2954 48.653 85.3284C42.62 91.3594 42.621 101.141 48.654 107.174L76.323 134.776L95.429 153.948Z" fill="#C1C1C1"/>
<path d="M117.275 38.5244C111.242 32.4914 101.461 32.4924 95.429 38.5244L48.654 85.3004C42.747 91.2064 42.377 100.449 48.037 106.505L48.276 106.76L48.587 107.071C48.61 107.094 48.63 107.12 48.653 107.144C48.677 107.17 48.705 107.19 48.731 107.215L76.323 134.774C61.466 119.917 81.413 96.2314 81.413 96.2314H81.409L117.275 60.3684C123.305 54.3374 123.307 44.5564 117.275 38.5244Z" fill="#EEEEEE"/>
<path d="M155.241 96.1654C149.207 90.1324 139.427 90.1324 133.394 96.1654C127.363 102.197 127.363 111.978 133.394 118.009L180.17 164.786C186.203 170.818 195.985 170.819 202.015 164.786C208.049 158.754 208.047 148.973 202.015 142.939L174.345 115.338L155.241 96.1654Z" fill="#C1C1C1"/>
<path d="M133.394 211.59C139.427 217.622 149.207 217.621 155.241 211.59L202.015 164.815C207.922 158.909 208.292 149.665 202.632 143.609L202.393 143.353L202.081 143.042C202.059 143.018 202.039 142.993 202.015 142.969C201.992 142.944 201.962 142.923 201.937 142.898L174.345 115.338C189.203 130.195 169.256 153.882 169.256 153.882L169.259 153.88L133.395 189.745C127.363 195.777 127.363 205.559 133.394 211.59Z" fill="#EEEEEE"/>
</svg>
