<svg width="808" height="244" viewBox="0 0 808 244" fill="none" xmlns="http://www.w3.org/2000/svg">
<path d="M686.528 117.114C684.756 117.114 683.25 116.494 682.009 115.254C680.769 113.925 680.149 112.375 680.149 110.603C680.149 108.831 680.769 107.325 682.009 106.084C683.25 104.844 684.756 104.224 686.528 104.224H692.907C693.704 104.224 694.103 103.825 694.103 103.028V86.5487C694.103 84.511 694.811 82.7391 696.229 81.2329C697.735 79.7268 699.507 78.9737 701.545 78.9737H704.203C706.24 78.9737 708.012 79.7268 709.518 81.2329C711.025 82.7391 711.778 84.511 711.778 86.5487V103.028C711.778 103.825 712.176 104.224 712.974 104.224H728.124C729.896 104.224 731.402 104.844 732.642 106.084C733.971 107.325 734.635 108.831 734.635 110.603C734.635 112.375 733.971 113.925 732.642 115.254C731.402 116.494 729.896 117.114 728.124 117.114H712.974C712.176 117.114 711.778 117.469 711.778 118.178V145.022C711.778 150.781 712.398 154.502 713.638 156.186C714.878 157.869 717.448 158.711 721.346 158.711C723.472 158.711 725.067 158.622 726.13 158.445C727.902 158.268 729.453 158.666 730.782 159.641C732.11 160.615 732.775 161.944 732.775 163.628C732.775 165.577 732.11 167.349 730.782 168.943C729.541 170.45 727.991 171.291 726.13 171.468C722.232 171.823 719.308 172 717.359 172C708.765 172 702.741 170.184 699.285 166.551C695.83 162.83 694.103 156.23 694.103 146.75V118.178C694.103 117.469 693.704 117.114 692.907 117.114H686.528Z" fill="#002145"/>
<path d="M648.279 172C637.293 172 628.832 168.988 622.896 162.963C616.96 156.85 613.992 147.902 613.992 136.118C613.992 124.512 616.827 115.653 622.497 109.539C628.256 103.338 636.407 100.237 646.95 100.237C651.646 100.237 656.164 100.547 660.505 101.167C662.543 101.433 664.226 102.363 665.555 103.958C666.884 105.553 667.549 107.413 667.549 109.539C667.549 111.311 666.84 112.729 665.422 113.792C664.093 114.855 662.543 115.21 660.771 114.855C657.316 114.146 653.462 113.792 649.209 113.792C643.628 113.792 639.463 115.564 636.717 119.108C633.971 122.652 632.597 128.322 632.597 136.118C632.597 144.092 634.059 149.807 636.983 153.262C639.906 156.717 644.425 158.445 650.538 158.445C654.879 158.445 658.645 158.046 661.834 157.249C663.517 156.806 665.024 157.116 666.353 158.179C667.77 159.242 668.479 160.615 668.479 162.299C668.479 164.425 667.814 166.286 666.485 167.88C665.245 169.475 663.606 170.45 661.568 170.804C657.05 171.601 652.62 172 648.279 172Z" fill="#002145"/>
<path d="M575.63 112.596C571.112 112.596 567.612 113.881 565.131 116.45C562.739 118.931 561.233 122.962 560.613 128.543C560.613 129.252 560.967 129.607 561.676 129.607H587.723C588.432 129.607 588.787 129.252 588.787 128.543C588.432 117.912 584.047 112.596 575.63 112.596ZM578.952 172C567.346 172 558.398 168.988 552.108 162.963C545.906 156.85 542.805 147.902 542.805 136.118C542.805 124.424 545.596 115.52 551.177 109.407C556.759 103.293 564.821 100.237 575.364 100.237C595.033 100.237 605.133 111.4 605.664 133.726C605.753 135.853 605 137.625 603.405 139.042C601.81 140.46 599.95 141.168 597.823 141.168H561.543C560.746 141.168 560.436 141.567 560.613 142.364C561.233 148.3 563.182 152.642 566.46 155.388C569.827 158.046 574.7 159.375 581.079 159.375C585.066 159.375 589.495 158.71 594.368 157.382C595.963 156.939 597.425 157.204 598.754 158.179C600.171 159.153 600.88 160.482 600.88 162.166C600.88 164.203 600.26 166.02 599.02 167.614C597.868 169.121 596.317 170.051 594.368 170.405C589.407 171.468 584.268 172 578.952 172Z" fill="#002145"/>
<path d="M516.772 170.671C514.734 170.671 512.963 169.918 511.456 168.412C509.95 166.906 509.197 165.134 509.197 163.096V78.575C509.197 76.5373 509.95 74.7653 511.456 73.2592C512.963 71.7531 514.734 71 516.772 71H520.227C522.265 71 524.037 71.7531 525.543 73.2592C527.049 74.7653 527.802 76.5373 527.802 78.575V163.096C527.802 165.134 527.049 166.906 525.543 168.412C524.037 169.918 522.265 170.671 520.227 170.671H516.772Z" fill="#002145"/>
<path d="M477.122 170.671C475.084 170.671 473.312 169.918 471.806 168.412C470.3 166.906 469.547 165.134 469.547 163.096V78.575C469.547 76.5373 470.3 74.7653 471.806 73.2592C473.312 71.7531 475.084 71 477.122 71H480.577C482.615 71 484.387 71.7531 485.893 73.2592C487.399 74.7653 488.152 76.5373 488.152 78.575V163.096C488.152 165.134 487.399 166.906 485.893 168.412C484.387 169.918 482.615 170.671 480.577 170.671H477.122Z" fill="#002145"/>
<path d="M437.471 170.671C435.434 170.671 433.662 169.918 432.156 168.412C430.649 166.906 429.896 165.134 429.896 163.096V109.141C429.896 107.103 430.649 105.331 432.156 103.825C433.662 102.319 435.434 101.566 437.471 101.566H440.927C442.964 101.566 444.736 102.319 446.242 103.825C447.749 105.331 448.502 107.103 448.502 109.141V163.096C448.502 165.134 447.749 166.906 446.242 168.412C444.736 169.918 442.964 170.671 440.927 170.671H437.471ZM437.471 86.9474C435.434 86.9474 433.662 86.1943 432.156 84.6882C430.649 83.182 429.896 81.4101 429.896 79.3724V78.575C429.896 76.5373 430.649 74.7653 432.156 73.2592C433.662 71.7531 435.434 71 437.471 71H440.927C442.964 71 444.736 71.7531 446.242 73.2592C447.749 74.7653 448.502 76.5373 448.502 78.575V79.3724C448.502 81.4101 447.749 83.182 446.242 84.6882C444.736 86.1943 442.964 86.9474 440.927 86.9474H437.471Z" fill="url(#paint0_linear_921_3)"/>
<path d="M361.924 170.671C359.886 170.671 358.114 169.918 356.608 168.412C355.102 166.906 354.349 165.134 354.349 163.096V78.575C354.349 76.5373 355.102 74.7653 356.608 73.2592C358.114 71.7531 359.886 71 361.924 71H364.582C366.619 71 368.391 71.7531 369.898 73.2592C371.404 74.7653 372.157 76.5373 372.157 78.575V129.739C372.157 129.828 372.201 129.872 372.29 129.872H372.423L392.623 107.147C395.901 103.426 400.065 101.566 405.115 101.566H410.696C412.114 101.566 413.088 102.23 413.62 103.559C414.24 104.888 414.063 106.084 413.088 107.147L388.769 133.992C388.326 134.524 388.326 135.1 388.769 135.72L413.354 164.957C414.329 166.108 414.462 167.349 413.753 168.678C413.133 170.007 412.114 170.671 410.696 170.671H405.115C400.065 170.671 395.945 168.722 392.755 164.824L372.423 140.238C372.423 140.15 372.378 140.105 372.29 140.105C372.201 140.105 372.157 140.15 372.157 140.238V163.096C372.157 165.134 371.404 166.906 369.898 168.412C368.391 169.918 366.619 170.671 364.582 170.671H361.924Z" fill="#002145"/>
<path d="M307.167 129.739C296.536 126.196 288.828 121.899 284.043 116.849C279.348 111.799 277 105.686 277 98.5092C277 90.4469 279.702 84.068 285.107 79.3724C290.511 74.6767 298.086 72.3289 307.832 72.3289C316.071 72.3289 323.247 73.2592 329.361 75.1197C331.487 75.7399 333.17 77.0246 334.411 78.9737C335.739 80.8342 336.404 82.9162 336.404 85.2197V86.4158C336.404 88.0991 335.651 89.4281 334.145 90.4026C332.639 91.2886 331.088 91.4215 329.493 90.8013C322.849 88.232 316.071 86.9474 309.161 86.9474C304.731 86.9474 301.364 87.9662 299.061 90.0039C296.757 92.0417 295.605 94.8767 295.605 98.5092C295.605 104.888 299.769 109.451 308.097 112.197C320.058 116.007 328.342 120.348 332.949 125.221C337.644 130.094 339.992 136.384 339.992 144.092C339.992 162.697 328.519 172 305.572 172C298.396 172 291.884 170.893 286.037 168.678C283.911 167.88 282.227 166.507 280.987 164.558C279.835 162.609 279.259 160.438 279.259 158.046V156.451C279.259 154.768 279.968 153.572 281.386 152.863C282.803 152.066 284.265 152.021 285.771 152.73C291.618 155.654 297.776 157.116 304.243 157.116C315.495 157.116 321.121 152.863 321.121 144.358C321.121 140.903 320.058 138.068 317.932 135.853C315.805 133.549 312.217 131.511 307.167 129.739Z" fill="#002145"/>
<path d="M125.429 151.02C131.461 157.053 141.242 157.053 147.274 151.02C153.306 144.99 153.306 135.207 147.274 129.177L100.498 82.3999C94.466 76.3679 84.685 76.3669 78.653 82.3999C72.62 88.4309 72.621 98.2129 78.654 104.246L106.323 131.848L125.429 151.02Z" fill="url(#paint1_radial_921_3)"/>
<path d="M147.275 35.5959C141.242 29.5629 131.461 29.5639 125.429 35.5959L78.654 82.3719C72.747 88.2779 72.377 97.5209 78.037 103.577L78.276 103.832L78.587 104.143C78.61 104.166 78.63 104.192 78.653 104.216C78.677 104.242 78.705 104.262 78.731 104.287L106.323 131.846C91.466 116.989 111.413 93.3029 111.413 93.3029H111.409L147.275 57.4399C153.305 51.4089 153.307 41.6279 147.275 35.5959Z" fill="url(#paint2_linear_921_3)"/>
<path d="M185.241 93.2369C179.207 87.2039 169.427 87.2039 163.394 93.2369C157.363 99.2689 157.363 109.05 163.394 115.081L210.17 161.858C216.203 167.89 225.985 167.891 232.015 161.858C238.049 155.826 238.047 146.045 232.015 140.011L204.345 112.41L185.241 93.2369Z" fill="url(#paint3_linear_921_3)"/>
<path d="M163.394 208.662C169.427 214.694 179.207 214.693 185.241 208.662L232.015 161.887C237.922 155.981 238.292 146.737 232.632 140.681L232.393 140.425L232.081 140.114C232.059 140.09 232.039 140.065 232.015 140.041C231.992 140.016 231.962 139.995 231.937 139.97L204.345 112.41C219.203 127.267 199.256 150.954 199.256 150.954L199.259 150.952L163.395 186.817C157.363 192.849 157.363 202.631 163.394 208.662Z" fill="url(#paint4_linear_921_3)"/>
<circle cx="439" cy="78" r="10" fill="#70185C"/>
<defs>
<linearGradient id="paint0_linear_921_3" x1="439" y1="102" x2="439.199" y2="170.671" gradientUnits="userSpaceOnUse">
<stop stop-color="#A954BD"/>
<stop offset="1" stop-color="#660D59"/>
</linearGradient>
<radialGradient id="paint1_radial_921_3" cx="0" cy="0" r="1" gradientUnits="userSpaceOnUse" gradientTransform="translate(76.9812 89.4506) scale(85.8702 85.8702)">
<stop offset="0.04" stop-color="#4674B5"/>
<stop offset="0.3306" stop-color="#4878B5"/>
<stop offset="0.4942" stop-color="#4F84B6"/>
<stop offset="0.87" stop-color="#15407D"/>
</radialGradient>
<linearGradient id="paint2_linear_921_3" x1="66" y1="120" x2="152" y2="42.5" gradientUnits="userSpaceOnUse">
<stop offset="0.085" stop-color="#1668A4"/>
<stop offset="0.305" stop-color="#16609D"/>
<stop offset="0.505" stop-color="#165C98"/>
<stop offset="0.775" stop-color="#16518D"/>
<stop offset="1" stop-color="#163E7C"/>
</linearGradient>
<linearGradient id="paint3_linear_921_3" x1="159" y1="99" x2="190" y2="166" gradientUnits="userSpaceOnUse">
<stop offset="0.0096" stop-color="#A14BAE"/>
<stop offset="0.385" stop-color="#B15DCB"/>
<stop offset="0.675" stop-color="#B562D3"/>
<stop offset="1" stop-color="#C798DB"/>
</linearGradient>
<linearGradient id="paint4_linear_921_3" x1="222" y1="136" x2="159" y2="213" gradientUnits="userSpaceOnUse">
<stop stop-color="#C155C6"/>
<stop offset="0.2403" stop-color="#903A91"/>
<stop offset="0.4681" stop-color="#8B3789"/>
<stop offset="0.6759" stop-color="#782269"/>
<stop offset="1" stop-color="#660D4E"/>
</linearGradient>
</defs>
</svg>
